<?xml version="1.0" encoding="utf-8"?>
<!-- Generator: Adobe Illustrator 24.0.3, SVG Export Plug-In . SVG Version: 6.00 Build 0)  -->
<svg version="1.1" id="Calque_1" xmlns="http://www.w3.org/2000/svg" xmlns:xlink="http://www.w3.org/1999/xlink" x="0px" y="0px"
	 viewBox="0 0 60 60" style="enable-background:new 0 0 60 60;" xml:space="preserve">
<style type="text/css">
	.st0{fill:#60CFFF;}
	.st1{fill:#60CFFF;}
</style>
<g>
	<linearGradient id="SVGID_1_" gradientUnits="userSpaceOnUse" x1="29.8" y1="51.9424" x2="29.8" y2="15.5587">
		<stop  offset="0" style="stop-color:#61D0FF"/>
		<stop  offset="0.9889" style="stop-color:#61D0FF"/>
		<stop  offset="1" style="stop-color:#60CFFF"/>
	</linearGradient>
	<path class="st0" d="M56.1,15.6H3.5c-1.5,0-2.7,1.2-2.7,2.7v31c0,1.5,1.2,2.7,2.7,2.7h52.6c1.5,0,2.7-1.2,2.7-2.7v-31
		C58.8,16.8,57.6,15.6,56.1,15.6z"/>
	<linearGradient id="SVGID_2_" gradientUnits="userSpaceOnUse" x1="29.8" y1="6.2999" x2="29.8" y2="18.2383">
		<stop  offset="0.2575" style="stop-color:#94E0FF"/>
		<stop  offset="0.9997" style="stop-color:#90DEFF"/>
	</linearGradient>
	<path class="st1" d="M56.1,11.7H22.2c-2.1,0-3.4-2.1-4.3-3.7c-0.5-0.9-1.2-1.3-1.7-1.5c0,0,0,0,0,0c-0.6-0.2-1-0.2-1-0.2v0
		c0,0,0,0-0.1,0H3.5C2,6.3,0.8,7.5,0.8,9v5.4v3.9c0-1.5,1.2-2.7,2.7-2.7h52.6c1.5,0,2.7,1.2,2.7,2.7v-3.9
		C58.8,12.9,57.6,11.7,56.1,11.7z"/>
</g>
</svg>
