<?xml version="1.0" encoding="utf-8"?>
<!-- Generator: Adobe Illustrator 23.1.1, SVG Export Plug-In . SVG Version: 6.00 Build 0)  -->
<svg version="1.1" id="Layer_1" xmlns="http://www.w3.org/2000/svg" xmlns:xlink="http://www.w3.org/1999/xlink" x="0px" y="0px"
	 viewBox="0 0 953.59 145.73" style="enable-background:new 0 0 953.59 145.73;" xml:space="preserve">
<style type="text/css">
	.st0{fill:#15140F;}
</style>
<g>
	<path class="st0" d="M0,73.72c0-26.4,15.54-42.56,38.97-42.56s38.97,16.17,38.97,42.56c0,26.47-15.46,42.64-38.97,42.64
		S0,100.2,0,73.72z M60.76,73.72c0-18.2-8.59-28.66-21.79-28.66c-13.2,0-21.79,10.46-21.79,28.66c0,18.27,8.59,28.74,21.79,28.74
		C52.25,102.46,60.76,92,60.76,73.72z"/>
	<path class="st0" d="M90.98,32.64h16.09v13.98h0.39c2.73-9.61,10.07-15.31,19.76-15.31c2.42,0,4.53,0.39,5.78,0.62v15.7
		c-1.33-0.55-4.3-0.94-7.58-0.94c-10.86,0-17.57,7.26-17.57,18.9v49.2H90.98V32.64z"/>
	<path class="st0" d="M139.24,121.2h16.95c2.42,6.87,9.92,11.4,19.52,11.4c13.2,0,21.01-7.5,21.01-18.74v-13.51h-0.31
		c-4.61,8.9-14.29,14.76-26.01,14.76c-20.62,0-34.13-16.09-34.13-41.7c0-25.85,13.43-42.09,34.52-42.09
		c11.64,0,21.16,5.86,26.16,15.39h0.31V32.64h16.4v80.67c0,19.6-15.15,32.41-38.58,32.41C155.72,145.73,141.35,135.42,139.24,121.2z
		 M196.8,73.49c0-16.87-8.67-27.96-21.87-27.96c-12.96,0-21.4,10.86-21.4,27.96c0,17.18,8.43,27.65,21.4,27.65
		C188.13,101.13,196.8,90.44,196.8,73.49z"/>
	<path class="st0" d="M227.01,91.45c0-14.37,11.01-23.19,30.54-24.29l22.49-1.33v-6.33c0-9.14-6.17-14.6-16.48-14.6
		c-9.76,0-15.85,4.69-17.34,12.03H230.3c0.94-14.84,13.59-25.77,33.89-25.77c19.91,0,32.64,10.54,32.64,27.02v56.62h-16.17v-13.51
		h-0.39c-4.76,9.14-15.15,14.92-25.93,14.92C238.26,116.21,227.01,106.21,227.01,91.45z M280.04,84.03v-6.48l-20.23,1.25
		c-10.07,0.7-15.78,5.15-15.78,12.18c0,7.18,5.94,11.87,14.99,11.87C270.83,102.85,280.04,94.73,280.04,84.03z"/>
	<path class="st0" d="M313.15,32.64h16.09v13.74h0.39c4.45-9.37,13.2-15.15,25.85-15.15c18.12,0,28.51,11.56,28.51,30.38v53.18
		h-16.95V64.9c0-12.34-5.78-19.13-17.49-19.13c-11.87,0-19.52,8.43-19.52,21.16v47.87h-16.87V32.64z"/>
	<path class="st0" d="M399.44,9.68c0-5.39,4.37-9.68,9.76-9.68c5.39,0,9.68,4.3,9.68,9.68c0,5.31-4.3,9.68-9.68,9.68
		C403.82,19.37,399.44,14.99,399.44,9.68z M400.77,32.64h16.87v82.16h-16.87V32.64z"/>
	<path class="st0" d="M489.33,60.92c-1.72-8.75-8.28-15.7-19.29-15.7c-13.04,0-21.63,10.85-21.63,28.51
		c0,18.04,8.67,28.5,21.79,28.5c10.39,0,17.18-5.7,19.13-15.23h16.24c-1.8,17.49-15.78,29.36-35.53,29.36
		c-23.51,0-38.81-16.09-38.81-42.64c0-26.08,15.31-42.56,38.66-42.56c21.16,0,34.05,13.59,35.53,29.75H489.33z"/>
	<path class="st0" d="M518.14,2.11h16.87V114.8h-16.87V2.11z"/>
	<path class="st0" d="M549.07,91.45c0-14.37,11.01-23.19,30.54-24.29l22.49-1.33v-6.33c0-9.14-6.17-14.6-16.48-14.6
		c-9.76,0-15.85,4.69-17.34,12.03h-15.93c0.94-14.84,13.59-25.77,33.89-25.77c19.91,0,32.64,10.54,32.64,27.02v56.62h-16.17v-13.51
		h-0.39c-4.76,9.14-15.15,14.92-25.93,14.92C560.31,116.21,549.07,106.21,549.07,91.45z M602.1,84.03v-6.48l-20.23,1.25
		c-10.07,0.7-15.78,5.15-15.78,12.18c0,7.18,5.94,11.87,14.99,11.87C592.88,102.85,602.1,94.73,602.1,84.03z"/>
	<path class="st0" d="M652.54,100.82h-0.31v13.98h-16.4V2.11h16.87v44.51h0.39c4.92-9.53,14.29-15.31,25.93-15.31
		c20.7,0,34.21,16.4,34.21,42.41c0,26.08-13.43,42.48-34.28,42.48C666.91,116.21,657.62,110.35,652.54,100.82z M652.62,73.72
		c0,17.1,8.98,28.19,21.79,28.19c13.28,0,21.48-10.78,21.48-28.19c0-17.26-8.2-28.19-21.48-28.19
		C661.6,45.53,652.62,56.78,652.62,73.72z"/>
	<path class="st0" d="M724.93,105.43c0-5.7,4.53-10.23,10.23-10.23c5.7,0,10.23,4.53,10.23,10.23c0,5.7-4.53,10.23-10.23,10.23
		C729.46,115.66,724.93,111.13,724.93,105.43z"/>
	<path class="st0" d="M762.81,103.95l43.81-57.56v-0.31h-43.5V32.64h62.87V44.2l-42.72,56.85v0.31h43.19v13.43h-63.65V103.95z"/>
	<path class="st0" d="M840.74,9.68c0-5.39,4.37-9.68,9.76-9.68c5.39,0,9.68,4.3,9.68,9.68c0,5.31-4.29,9.68-9.68,9.68
		C845.12,19.37,840.74,14.99,840.74,9.68z M842.07,32.64h16.87v82.16h-16.87V32.64z"/>
	<path class="st0" d="M953.59,73.72c0,26.01-13.67,42.48-34.28,42.48c-11.79,0-21.16-5.78-25.85-14.92h-0.39v40.69H876.2V32.64
		h16.32v14.14h0.31c4.84-9.45,14.29-15.46,26.16-15.46C939.85,31.32,953.59,47.72,953.59,73.72z M936.25,73.72
		c0-17.18-8.36-28.19-21.71-28.19c-12.89,0-21.55,11.25-21.55,28.19c0,17.1,8.59,28.19,21.55,28.19
		C927.9,101.92,936.25,90.98,936.25,73.72z"/>
</g>
</svg>
